# xmcd
#
# Track frame offsets:
#	150
#	23627
#	37972
#	44117
#	54203
#	70866
#	84011
#	95917
#	112426
#	133437
#	152802
#	163286
#	175807
#	186933
#	197910
#	211287
#	223356
#	241943
#
# Disc length: 3438 seconds
#
# Revision: 0
# Processed by: cddbd v1.4PL0 Copyright (c) Steve Scherf et al.
# Submitted via: dBpowerAMP V4.0
#
DISCID=130d6c12
DTITLE=Various Artist - Guitar Heroes CD2
DYEAR=1900
DGENRE=Blues
TTITLE0=B.B.King - How blue can you get
TTITLE1=John Mayall - John Lee Boogie
TTITLE2=Eric Clapton - Choker
TTITLE3=John Mayell's Blues Brakers - I'm your witch doctor
TTITLE4=Tony Joe White - Polk salad Annie
TTITLE5=John Mayell - A big man
TTITLE6=John Lee Hooker - I'm in the mood
TTITLE7=Mitch Ryder - Devill with the blue dress
TTITLE8=Mide Bloomfield - Cherry Red
TTITLE9=Johnny Winter - Prodigal Son
TTITLE10=B.B.King - I'm willing to run all the way
TTITLE11=Eric Clapton - Freight loader
TTITLE12=John Lee Hooker - Boom Boom
TTITLE13=Johnny Guitar Watson - Johnny Guitar
TTITLE14=Tony Joe White - You got me running
TTITLE15=Santana - Latin Tropical (short version)
TTITLE16=Humble Pie - Natural born boogie
TTITLE17=Mitch Ryder - Jenny take a ride
EXTD=
EXTT0=
EXTT1=
EXTT2=
EXTT3=
EXTT4=
EXTT5=
EXTT6=
EXTT7=
EXTT8=
EXTT9=
EXTT10=
EXTT11=
EXTT12=
EXTT13=
EXTT14=
EXTT15=
EXTT16=
EXTT17=
PLAYORDER=
